<svg id="Layer_1" data-name="Layer 1" 
    xmlns="http://www.w3.org/2000/svg" viewBox="0 0 231.36 198.43">
    <defs>
        <style>.cls-1{fill:#071d49;}</style>
    </defs>
    <title>Artboard 1_without-texture</title>
    <path class="cls-1" d="M92.3,58.65,77.12,24.32a4.63,4.63,0,0,1,2.36-6.11h0a4.64,4.64,0,0,1,6.11,2.37l15.18,34.33A2.37,2.37,0,0,1,99.56,58l-4.12,1.83A2.39,2.39,0,0,1,92.3,58.65Z"/>
    <path class="cls-1" d="M67.7,169.87l22.54-30.54a2.37,2.37,0,0,0-.5-3.32l-2.95-2.18a2.38,2.38,0,0,0-3.32.5L60.92,164.87a4.21,4.21,0,0,0,.89,5.89h0A4.22,4.22,0,0,0,67.7,169.87Z"/>
    <path class="cls-1" d="M152.93,70.68l49.18-50a6.33,6.33,0,0,0-.07-8.93h0a6.32,6.32,0,0,0-8.93.08l-49.18,50a2.37,2.37,0,0,0,0,3.36l5.61,5.52A2.38,2.38,0,0,0,152.93,70.68Z"/>
    <path class="cls-1" d="M142,60.57l22.31-43A5.48,5.48,0,0,0,162,10.22h0a5.48,5.48,0,0,0-7.38,2.34l-22.31,43a2.37,2.37,0,0,0,1,3.2l5.5,2.86A2.38,2.38,0,0,0,142,60.57Z"/>
    <path class="cls-1" d="M129.33,54.52l6.87-37.69a5.47,5.47,0,0,0-4.4-6.36h0a5.47,5.47,0,0,0-6.37,4.4l-6.87,37.68a2.37,2.37,0,0,0,1.91,2.76l6.09,1.12A2.39,2.39,0,0,0,129.33,54.52Z"/>
    <path class="cls-1" d="M108,55.72l4.47-.53a2.36,2.36,0,0,0,2.08-2.64l-4.42-37.28a4.62,4.62,0,0,0-5.14-4h0a4.62,4.62,0,0,0-4,5.14l4.42,37.28A2.36,2.36,0,0,0,108,55.72Z"/>
    <path class="cls-1" d="M197,135.94h0a4.63,4.63,0,0,0-2.37-6.1l-34.33-15.17a2.37,2.37,0,0,0-3.14,1.21L155.33,120a2.39,2.39,0,0,0,1.21,3.14l34.34,15.17A4.64,4.64,0,0,0,197,135.94Z"/>
    <path class="cls-1" d="M204.17,110h0a4.63,4.63,0,0,0-4.06-5.14l-37.28-4.41a2.39,2.39,0,0,0-2.64,2.09l-.53,4.47a2.39,2.39,0,0,0,2.09,2.64L199,114A4.62,4.62,0,0,0,204.17,110Z"/>
    <path class="cls-1" d="M162.63,96.32l37.43-6.84a5.47,5.47,0,0,0,4.39-6.37h0a5.47,5.47,0,0,0-6.36-4.4l-37.43,6.84a2.39,2.39,0,0,0-1.91,2.77l1.11,6.09A2.38,2.38,0,0,0,162.63,96.32Z"/>
    <path class="cls-1" d="M159.68,82.91,201.91,61a5.47,5.47,0,0,0,2.34-7.38h0a5.48,5.48,0,0,0-7.38-2.33l-42.23,22a2.39,2.39,0,0,0-1,3.21l2.85,5.49A2.38,2.38,0,0,0,159.68,82.91Z"/>
    <path class="cls-1" d="M162.37,175.54h0a4.21,4.21,0,0,0,1.34-5.8l-20.09-32.21a2.39,2.39,0,0,0-3.28-.76l-3.11,1.94a2.39,2.39,0,0,0-.76,3.28l20.1,32.2A4.21,4.21,0,0,0,162.37,175.54Z"/>
    <path class="cls-1" d="M85,67.14l2.77-2.4a2.38,2.38,0,0,0,.24-3.35L63.16,32.72a4.21,4.21,0,0,0-5.94-.42h0a4.22,4.22,0,0,0-.42,5.94L81.69,66.91A2.37,2.37,0,0,0,85,67.14Z"/>
    <path class="cls-1" d="M77,77.31l1.94-3.12a2.36,2.36,0,0,0-.76-3.27L45.93,50.84a4.21,4.21,0,0,0-5.8,1.34h0A4.21,4.21,0,0,0,41.47,58L73.69,78.07A2.38,2.38,0,0,0,77,77.31Z"/>
    <path class="cls-1" d="M72.2,89.65l.94-3.55a2.36,2.36,0,0,0-1.69-2.9l-36.7-9.73a4.21,4.21,0,0,0-5.14,3h0a4.2,4.2,0,0,0,3,5.15l36.69,9.72A2.38,2.38,0,0,0,72.2,89.65Z"/>
    <path class="cls-1" d="M30.87,106.59l37.93-1.5a2.38,2.38,0,0,0,2.28-2.47L70.93,99a2.37,2.37,0,0,0-2.46-2.28l-37.94,1.5a4.21,4.21,0,0,0-4,4.37h0A4.22,4.22,0,0,0,30.87,106.59Z"/>
    <path class="cls-1" d="M38.42,130.58l34-11.93a2.37,2.37,0,0,0,1.45-3l-1.21-3.46a2.37,2.37,0,0,0-3-1.45l-34,11.93A4.2,4.2,0,0,0,33.06,128h0A4.2,4.2,0,0,0,38.42,130.58Z"/>
    <path class="cls-1" d="M51,151.8l28.94-21.39a2.37,2.37,0,0,0,.5-3.32l-2.18-3a2.38,2.38,0,0,0-3.32-.5L46,145a4.21,4.21,0,0,0-.89,5.89h0A4.21,4.21,0,0,0,51,151.8Z"/>
    <path class="cls-1" d="M90.5,180.87l12.57-35.82a2.37,2.37,0,0,0-1.45-3l-3.46-1.21a2.37,2.37,0,0,0-3,1.45L82.56,178.08a4.21,4.21,0,0,0,2.58,5.37h0A4.21,4.21,0,0,0,90.5,180.87Z"/>
    <path class="cls-1" d="M115.66,184.77l1.48-37.93a2.39,2.39,0,0,0-2.28-2.47l-3.66-.14a2.37,2.37,0,0,0-2.47,2.28l-1.49,37.93a4.22,4.22,0,0,0,4.05,4.38h0A4.21,4.21,0,0,0,115.66,184.77Z"/>
    <path class="cls-1" d="M137.69,186.08h0a4.22,4.22,0,0,0,3-5.15l-9.74-36.69a2.39,2.39,0,0,0-2.91-1.69l-3.54.95a2.37,2.37,0,0,0-1.69,2.9l9.74,36.69A4.21,4.21,0,0,0,137.69,186.08Z"/>
    <path class="cls-1" d="M182.73,158.32h0a4.22,4.22,0,0,0-.42-5.94l-28.68-24.87a2.38,2.38,0,0,0-3.35.24l-2.4,2.77a2.37,2.37,0,0,0,.23,3.35l28.68,24.87A4.2,4.2,0,0,0,182.73,158.32Z"/>
</svg>